<?xml version="1.0" standalone="no"?>
<!DOCTYPE svg PUBLIC "-//W3C//DTD SVG 20010904//EN"
 "http://www.w3.org/TR/2001/REC-SVG-20010904/DTD/svg10.dtd">
<svg version="1.0" xmlns="http://www.w3.org/2000/svg"
 width="300.000000pt" height="300.000000pt" viewBox="0 0 300.000000 300.000000"
 preserveAspectRatio="xMidYMid meet">
<metadata>
Created by potrace 1.10, written by Peter Selinger 2001-2011
</metadata>
<g transform="translate(0.000000,300.000000) scale(0.100000,-0.100000)"
fill="#000000" stroke="none">
<path d="M1390 2480 c0 -3 0 -285 0 -627 0 -379 -3 -623 -9 -623 -5 0 -16 -3
-25 -6 -14 -5 -16 3 -16 56 0 55 -2 61 -17 55 -17 -7 -165 -55 -170 -55 -2 0
-3 12 -3 28 0 26 5 29 95 56 91 28 95 30 95 58 0 15 -1 28 -3 28 -2 0 -43 -14
-92 -30 -49 -16 -90 -30 -92 -30 -2 0 -3 13 -3 28 0 26 5 30 93 59 l92 30 3
68 c3 62 1 67 -15 60 -10 -3 -53 -19 -95 -35 l-78 -29 0 27 c0 26 7 30 95 61
90 32 95 35 95 62 0 27 -1 28 -27 18 -83 -32 -156 -59 -159 -59 -2 0 -4 10 -4
23 0 19 14 27 95 57 93 34 95 36 95 68 0 17 -2 32 -5 32 -3 0 -44 -16 -92 -35
-48 -19 -88 -35 -90 -35 -2 0 -3 12 -3 28 0 25 8 30 95 66 89 36 95 40 95 67
l0 28 -96 -45 c-86 -40 -95 -42 -92 -23 2 15 27 31 96 61 79 35 92 44 92 64 0
13 -2 24 -4 24 -2 0 -43 -18 -91 -40 -48 -22 -89 -40 -91 -40 -2 0 -4 8 -4 19
0 14 24 29 95 62 88 39 95 45 95 71 l0 29 -95 -49 -95 -49 0 119 0 118 -35 0
-35 0 0 -540 c0 -321 -4 -540 -9 -540 -5 0 -17 -3 -26 -7 -16 -5 -17 2 -13 70
2 43 3 77 2 77 -1 0 -32 -11 -70 -25 -38 -14 -70 -25 -71 -25 -2 0 -3 12 -3
28 0 25 6 29 68 47 l67 20 5 68 c3 37 2 67 -2 67 -4 0 -37 -11 -73 -25 l-65
-24 0 23 c0 20 10 27 63 46 34 13 65 26 68 29 4 3 9 25 12 47 l5 42 -62 -25
c-33 -13 -67 -27 -73 -30 -8 -3 -13 3 -13 15 0 18 47 45 117 66 18 6 22 16 25
64 2 31 3 58 2 60 0 1 -31 -11 -68 -28 -38 -16 -70 -30 -72 -30 -2 0 -4 8 -4
18 0 13 20 27 72 48 56 23 72 35 75 53 4 27 -3 26 -89 -13 -52 -23 -58 -24
-58 -8 0 12 24 29 75 55 56 27 75 42 75 57 0 27 -10 25 -80 -10 -33 -16 -62
-30 -65 -30 -3 0 -5 17 -5 38 0 38 21 72 53 89 15 8 19 23 20 66 1 32 -1 57
-5 57 -4 0 -23 -8 -43 -17 -25 -12 -35 -23 -35 -40 0 -12 -9 -27 -21 -33 -11
-6 -29 -26 -39 -43 -19 -31 -20 -54 -20 -519 l0 -486 -30 -11 -30 -10 2 394
c2 217 -1 395 -5 395 -15 0 -65 -30 -69 -41 -2 -7 -32 -11 -78 -11 -69 0 -75
1 -78 21 -4 28 -36 24 -40 -4 -2 -12 -13 -25 -25 -30 -20 -9 -22 -18 -25 -113
-3 -104 6 -142 33 -142 11 0 15 -11 15 -38 0 -55 12 -62 112 -62 105 0 118
-17 33 -44 -30 -9 -67 -28 -82 -40 -25 -21 -28 -32 -31 -100 l-4 -76 26 0 c35
0 73 -39 81 -81 3 -19 5 -70 3 -114 -3 -71 -5 -80 -23 -83 -19 -3 -20 2 -17
75 2 64 -1 84 -17 111 -23 35 -43 39 -101 18 -47 -17 -60 -46 -60 -143 0 -67
-3 -83 -15 -83 -12 0 -15 -14 -15 -70 l0 -70 41 0 c33 0 40 3 35 16 -9 22 12
150 29 185 38 72 83 4 92 -136 6 -93 -10 -184 -38 -217 l-19 -23 -26 30 c-26
29 -26 29 -10 3 9 -15 16 -30 16 -32 0 -3 -51 -7 -112 -8 -105 -3 -113 -4
-113 -23 0 -20 7 -20 1265 -20 1258 0 1265 0 1265 20 0 19 -8 20 -112 23
l-112 3 24 36 c27 39 45 93 45 136 l0 27 -131 0 c-130 0 -130 0 -127 22 3 23
5 23 161 23 l157 0 0 38 0 37 -615 0 -615 0 0 45 c0 38 3 45 20 45 19 0 20 7
20 90 0 83 -1 90 -20 90 -15 0 -20 7 -20 28 l0 27 615 -3 615 -2 0 55 0 55
-20 -20 c-65 -65 -222 -46 -270 32 l-17 29 -21 -35 c-45 -77 -178 -116 -278
-82 -26 9 -60 16 -75 16 -20 0 -39 13 -72 50 -78 87 -103 174 -73 260 18 52
12 65 -14 32 -59 -72 -19 -250 72 -323 21 -16 21 -16 0 -21 -15 -4 -31 6 -60
36 -55 56 -74 100 -80 176 -3 53 0 76 18 118 13 29 32 57 42 63 49 26 281 99
315 99 85 0 163 -43 212 -116 l28 -43 23 24 c13 14 32 27 42 31 18 5 17 7 -6
29 -32 30 -33 69 -3 99 l23 23 -38 22 c-69 39 -100 150 -63 221 9 17 12 30 8
30 -29 -1 -53 -50 -53 -106 0 -21 -4 -33 -10 -29 -13 8 -13 81 0 106 13 24 9
24 -37 -1 -21 -11 -47 -20 -58 -21 -14 0 -8 -5 16 -15 41 -17 59 -48 59 -101
0 -31 8 -44 49 -84 45 -43 47 -48 28 -53 -29 -7 -67 19 -81 55 -7 21 -15 27
-26 22 -8 -3 -33 -8 -56 -11 -36 -3 -44 0 -67 28 -15 17 -27 43 -27 56 0 35
27 84 48 85 9 1 1 5 -18 8 -19 4 -45 11 -57 15 -22 7 -22 7 -6 -34 14 -34 14
-49 4 -92 -23 -100 -94 -158 -194 -158 -62 0 -101 22 -151 83 -29 36 -31 45
-31 117 0 60 4 82 18 97 23 26 22 36 -4 23 -48 -26 -64 -141 -30 -215 10 -22
32 -55 49 -72 37 -36 39 -43 13 -43 -22 0 -76 52 -98 94 -24 46 -29 136 -9
174 15 29 15 32 1 32 -39 0 -59 -133 -29 -191 8 -17 14 -32 12 -33 -2 -2 -42
-16 -90 -33 -80 -27 -88 -28 -88 -12 0 13 17 24 60 40 l61 22 -7 58 c-5 42 -2
65 9 89 15 29 15 31 -1 28 -23 -4 -42 -46 -42 -93 0 -37 -3 -42 -33 -53 -45
-16 -47 -16 -47 12 0 17 7 26 24 30 18 4 25 14 28 41 3 26 1 34 -9 30 -7 -3
-20 -8 -28 -11 -11 -4 -15 1 -15 18 0 21 12 29 93 63 50 21 126 50 167 65 l75
28 -40 11 c-41 11 -82 46 -104 88 -16 31 -14 99 4 133 21 41 0 38 -25 -2 -36
-60 -21 -137 38 -200 l26 -28 -27 0 c-22 0 -34 10 -58 48 -26 40 -30 55 -26
97 2 28 7 58 11 68 6 13 5 16 -7 11 -42 -16 -47 -131 -8 -184 17 -24 18 -29 5
-34 -23 -9 -23 -9 -44 27 -22 36 -27 115 -9 149 9 16 8 19 -3 16 -21 -7 -38
-49 -38 -94 0 -29 -5 -44 -16 -48 -13 -5 -16 2 -14 46 2 29 2 109 1 178 l-1
125 -35 0 c-19 0 -35 -2 -35 -5z m60 -389 c0 -38 43 -75 70 -61 10 6 25 10 32
10 7 0 -16 -16 -52 -35 -35 -19 -65 -35 -67 -35 -2 0 -3 34 -3 75 0 43 4 75
10 75 6 0 10 -13 10 -29z m80 -22 c0 -14 -36 -10 -49 5 -10 11 -8 15 6 18 19
5 43 -8 43 -23z m-660 -152 c0 -4 -5 -17 -11 -28 -7 -14 -7 -24 0 -33 6 -7 8
-27 5 -45 -5 -23 -2 -37 12 -52 18 -20 41 -21 88 -3 37 14 11 -16 -33 -38 -25
-13 -54 -35 -65 -50 l-20 -28 22 -23 c27 -29 27 -39 2 -62 -27 -24 -25 -47 5
-75 22 -21 28 -22 62 -12 20 6 40 9 45 6 21 -13 3 -34 -46 -54 -52 -21 -86
-53 -86 -83 0 -7 11 -24 24 -36 20 -19 31 -22 69 -16 l44 7 7 -43 c5 -33 3
-45 -8 -51 -37 -21 -74 -60 -96 -102 -49 -96 -50 -84 -50 412 1 404 2 455 15
438 8 -11 15 -24 15 -29z m1270 -162 c11 -13 8 -15 -18 -15 -24 0 -30 4 -26
15 4 8 12 15 19 15 7 0 18 -7 25 -15z m-1630 -114 c0 -104 -10 -131 -37 -95
-20 26 -14 171 7 184 8 5 18 10 23 10 4 0 7 -45 7 -99z m160 -56 l0 -145 -80
0 -80 0 0 29 c0 21 6 32 20 36 18 6 20 15 20 116 l0 109 60 0 60 0 0 -145z
m1029 91 c9 -11 9 -16 1 -21 -14 -9 -61 15 -54 27 8 13 40 9 53 -6z m695 -18
c10 -39 7 -42 -19 -18 -25 23 -25 40 -1 40 8 0 16 -10 20 -22z m-790 -13 c15
-11 16 -16 5 -20 -52 -19 -134 -45 -141 -45 -5 0 -8 10 -6 21 2 15 17 27 48
40 55 22 70 23 94 4z m226 8 c0 -15 -34 -43 -53 -43 -10 0 -31 -7 -45 -15 -15
-8 -77 -31 -138 -50 -62 -19 -123 -44 -138 -56 l-26 -20 0 45 c0 49 2 51 29
37 23 -13 108 12 156 45 20 13 44 24 53 24 9 0 40 9 67 19 51 20 95 26 95 14z
m-62 -119 c-16 -36 -19 -62 -16 -115 3 -50 0 -70 -10 -74 -31 -12 -43 109 -17
172 19 45 33 63 51 63 10 0 8 -12 -8 -46z m-473 26 c8 -12 -29 -34 -92 -55
-29 -9 -55 -21 -58 -26 -13 -21 -25 -7 -25 29 0 46 6 54 29 40 13 -8 29 -7 62
5 52 18 76 20 84 7z m399 -47 c-16 -32 -19 -120 -4 -157 9 -25 8 -26 -78 -52
-48 -15 -93 -29 -99 -31 -8 -3 -13 3 -13 13 0 15 17 24 73 41 l73 22 0 70 c0
49 -4 67 -12 64 -13 -5 -24 -36 -24 -70 0 -18 -13 -25 -76 -47 -75 -25 -75
-25 -72 -4 2 16 17 26 61 41 43 14 57 23 57 38 0 24 -7 24 -70 0 -47 -18 -50
-18 -50 -1 0 13 27 27 113 58 138 50 140 50 121 15z m-994 -199 c0 -45 0 -45
-22 -30 -29 21 -46 20 -91 -4 -20 -11 -37 -16 -37 -11 0 4 27 23 60 40 32 18
62 36 65 41 14 23 25 7 25 -36z m758 4 c7 -7 12 -19 12 -28 0 -9 9 -25 21 -36
20 -18 23 -18 87 -1 37 10 85 27 108 37 60 30 75 26 111 -29 l31 -48 -41 -6
c-23 -3 -90 -3 -148 -1 -132 5 -176 -3 -203 -39 l-21 -28 23 -39 c25 -44 29
-107 8 -135 -12 -16 -14 -12 -20 43 -4 38 -18 84 -37 119 -23 43 -27 58 -17
65 7 4 16 8 20 8 14 0 38 59 38 95 0 37 8 43 28 23z m-160 -75 c-2 -20 -9 -28
-23 -29 -45 -2 -54 -5 -91 -34 l-38 -31 -23 23 c-20 21 -22 27 -11 55 10 28
15 30 47 26 20 -3 47 0 61 6 14 5 38 10 53 10 25 1 28 -2 25 -26z m-628 -3 c0
-20 -20 -32 -74 -46 -21 -5 -23 -3 -19 20 8 40 93 64 93 26z m32 -127 c4 -70
1 -91 -11 -100 -26 -22 -39 -14 -45 30 -4 23 -16 57 -26 75 l-20 33 34 14 c19
8 37 19 41 25 16 25 23 4 27 -77z m607 52 c17 -8 39 -34 52 -62 21 -42 24 -65
27 -193 l4 -145 124 4 124 3 0 -25 0 -26 -149 -3 -150 -3 -3 162 c-3 146 -5
164 -24 190 -22 30 -50 39 -91 28 l-25 -6 25 -25 c37 -37 52 -111 52 -254 0
-137 -19 -224 -56 -261 -18 -18 -23 -19 -42 -6 -12 8 -31 36 -42 63 -17 42
-20 73 -20 209 0 143 3 166 23 217 29 72 61 120 92 135 32 16 45 16 79 -2z
m-203 -27 c17 -17 21 -30 17 -50 l-5 -28 -25 20 c-26 20 -80 25 -117 11 -18
-7 -18 -8 -2 -14 65 -25 92 -298 46 -459 -22 -76 -78 -110 -95 -57 -4 10 -11
19 -16 19 -11 0 -4 -16 19 -42 14 -17 8 -18 -111 -18 l-126 0 18 33 c11 17 22
47 26 64 l7 33 75 0 c68 0 74 2 68 18 -4 9 -9 60 -12 112 -9 161 41 328 111
371 39 25 91 19 122 -13z m-18 -112 c4 -17 -13 -44 -22 -35 -2 2 -8 17 -12 33
-6 24 -4 27 12 24 10 -2 20 -12 22 -22z m-570 -28 c3 -22 -1 -28 -15 -28 -10
0 -28 -7 -39 -15 -36 -24 -47 11 -18 53 23 34 68 27 72 -10z m330 -5 c-18 -43
-26 -50 -60 -57 -102 -20 -108 -24 -108 -65 0 -22 6 -44 15 -51 22 -18 18 -30
-8 -30 -29 0 -47 35 -47 89 0 59 24 80 126 111 49 15 90 28 91 29 2 0 -3 -11
-9 -26z m-18 -148 l0 -55 -43 0 c-40 0 -44 2 -56 35 -15 42 -10 52 32 64 64
18 67 16 67 -44z m1530 -54 c0 -6 -4 -13 -10 -16 -15 -9 -12 -48 4 -71 12 -16
30 -20 118 -24 122 -6 124 -8 82 -106 l-28 -64 -147 0 -148 0 -25 56 c-14 31
-31 74 -36 95 -14 52 -44 82 -73 73 -12 -3 -38 -21 -57 -40 -35 -33 -38 -34
-119 -34 -83 0 -83 0 -128 40 -46 41 -79 50 -101 28 -9 -9 -12 -7 -12 9 0 12
-4 25 -10 28 -5 3 -10 13 -10 21 0 12 52 14 350 14 212 0 350 -4 350 -9z
m-1528 -66 l5 -25 -117 0 c-115 0 -117 0 -114 23 1 12 3 23 3 25 1 1 50 2 110
2 108 0 109 0 113 -25z m938 -60 l44 -45 101 0 101 0 44 45 c24 25 47 45 51
45 4 0 12 -23 18 -51 13 -58 25 -85 54 -116 l20 -23 -283 0 c-272 0 -282 1
-267 18 21 23 47 96 47 132 0 26 7 40 20 40 3 0 26 -20 50 -45z m-275 14 c72
1 139 4 149 8 17 5 18 1 13 -32 -3 -21 -16 -62 -28 -91 l-23 -54 -178 0 c-98
0 -178 3 -178 8 0 4 7 17 15 28 8 12 22 49 31 83 17 59 19 62 43 55 14 -4 85
-6 156 -5z m-800 -30 c4 -5 -3 -39 -16 -75 l-23 -64 -54 0 c-48 0 -53 2 -47
18 9 20 37 101 41 120 4 15 90 17 99 1z m395 -27 c0 -9 11 -36 24 -59 13 -23
21 -44 18 -47 -8 -9 -112 -7 -112 2 0 4 12 35 27 69 25 58 43 73 43 35z"/>
<path d="M1181 966 c-23 -28 -36 -149 -23 -227 22 -145 63 -119 70 43 5 106
-1 155 -21 182 -12 16 -14 16 -26 2z"/>
<path d="M938 958 c-18 -31 -18 -265 0 -295 7 -13 17 -23 22 -23 32 0 48 228
22 303 -16 43 -26 46 -44 15z"/>
<path d="M2105 2418 c-139 -49 -184 -216 -87 -329 44 -51 85 -69 154 -69 176
1 260 215 135 345 -58 59 -130 78 -202 53z m141 -112 c33 -33 39 -52 34 -106
-3 -37 -17 -59 -53 -80 -82 -50 -177 9 -177 110 0 34 6 48 34 76 29 29 41 34
81 34 40 0 52 -5 81 -34z"/>
<path d="M2106 2284 c-46 -46 -31 -114 29 -140 59 -24 115 14 115 78 0 80 -88
118 -144 62z m99 -19 c14 -13 25 -33 25 -45 0 -27 -35 -60 -64 -60 -25 0 -66
41 -66 67 0 19 45 63 65 63 9 0 27 -11 40 -25z"/>
<path d="M1935 2388 c-22 -11 -42 -22 -44 -24 -2 -1 6 -15 17 -29 20 -25 21
-25 27 -5 3 11 18 34 32 50 29 35 23 37 -32 8z"/>
<path d="M2481 2382 c-60 -30 -71 -56 -64 -146 5 -68 10 -83 36 -113 25 -29
34 -33 62 -27 19 3 46 0 67 -9 33 -14 37 -14 67 10 44 34 61 73 61 136 0 124
-122 204 -229 149z m128 -88 c48 -40 41 -102 -16 -132 -33 -18 -59 -14 -89 12
-21 18 -28 32 -28 61 0 29 7 43 28 61 35 31 67 30 105 -2z"/>
<path d="M2514 2265 c-21 -33 -6 -72 31 -81 52 -13 86 53 47 89 -27 24 -59 21
-78 -8z m66 -10 c18 -21 5 -45 -25 -45 -40 0 -34 54 6 59 4 1 12 -6 19 -14z"/>
<path d="M1733 2341 c-39 -25 -53 -49 -53 -96 0 -66 56 -125 118 -125 34 0 86
43 99 82 34 103 -74 195 -164 139z m105 -59 c29 -38 2 -102 -45 -102 -44 0
-79 60 -55 96 23 34 75 38 100 6z"/>
<path d="M1759 2259 c-9 -18 -7 -25 9 -41 16 -16 23 -18 41 -9 23 13 28 40 9
59 -19 19 -46 14 -59 -9z m49 -16 c-2 -10 -10 -18 -18 -18 -8 0 -16 8 -18 18
-2 12 3 17 18 17 15 0 20 -5 18 -17z"/>
<path d="M1888 2126 l-27 -33 44 1 c44 1 56 8 35 21 -5 3 -10 15 -10 26 0 27
-11 23 -42 -15z"/>
<path d="M2394 2108 c-9 -18 -23 -41 -32 -51 -24 -27 -12 -26 48 2 l55 26 -27
28 -27 28 -17 -33z"/>
<path d="M1832 2030 c-34 -15 -47 -29 -64 -66 -54 -123 42 -252 167 -224 135
30 158 230 35 292 -45 23 -84 22 -138 -2z m121 -70 c33 -26 43 -70 23 -108
-41 -79 -156 -49 -156 40 0 75 75 113 133 68z"/>
<path d="M1874 1942 c-39 -26 -36 -79 6 -102 32 -17 80 14 80 53 0 37 -56 70
-86 49z m51 -28 c18 -18 16 -33 -7 -47 -35 -22 -66 21 -36 51 16 16 23 15 43
-4z"/>
<path d="M2462 2030 c-77 -47 -81 -160 -7 -218 41 -32 78 -36 129 -14 51 23
76 62 76 119 0 50 -18 82 -59 110 -42 29 -95 30 -139 3z m118 -70 c26 -26 25
-60 0 -88 -39 -42 -112 -14 -112 41 0 60 70 89 112 47z"/>
<path d="M2506 1944 c-31 -30 -8 -69 36 -62 30 4 38 46 12 65 -23 17 -29 16
-48 -3z m44 -19 c10 -12 9 -16 -5 -21 -19 -8 -40 9 -31 25 10 15 21 14 36 -4z"/>
<path d="M2182 1914 c-49 -34 -6 -123 47 -94 46 24 47 75 1 100 -24 13 -21 13
-48 -6z m56 -42 c4 -28 -24 -40 -45 -19 -14 13 -14 19 -3 32 18 22 44 15 48
-13z"/>
<path d="M2672 1815 c-7 -14 -29 -36 -49 -48 -37 -21 -37 -22 -13 -25 61 -9
83 -83 36 -119 l-24 -18 34 -22 34 -22 0 139 c0 77 -2 140 -3 140 -2 0 -9 -11
-15 -25z"/>
<path d="M2478 1709 c-35 -20 -11 -75 28 -67 31 6 40 34 20 57 -22 24 -24 24
-48 10z m38 -20 c10 -17 -13 -36 -27 -22 -12 12 -4 33 11 33 5 0 12 -5 16 -11z"/>
<path d="M2580 1706 c-6 -8 -10 -25 -8 -38 2 -18 9 -23 33 -23 24 0 31 5 33
23 4 25 -13 52 -33 52 -7 0 -18 -7 -25 -14z"/>
<path d="M2080 1613 c-46 -23 -60 -37 -82 -82 -36 -70 -36 -121 -2 -189 57
-115 203 -145 298 -61 75 65 89 203 29 276 -40 50 -80 72 -140 79 -40 5 -57 1
-103 -23z m166 -97 c29 -29 34 -41 34 -81 0 -40 -5 -52 -34 -81 -26 -26 -42
-34 -70 -34 -96 0 -153 88 -111 170 21 42 53 60 103 60 37 0 50 -6 78 -34z"/>
<path d="M2109 1491 c-17 -18 -29 -40 -29 -56 0 -37 50 -85 88 -85 43 0 82 40
82 85 0 26 -7 43 -26 60 -37 34 -78 33 -115 -4z m97 -16 c18 -19 23 -31 19
-48 -11 -33 -30 -49 -61 -49 -52 0 -75 76 -32 106 31 22 45 20 74 -9z"/>
<path d="M1937 1588 c-43 -33 -60 -147 -33 -213 8 -19 17 -35 19 -35 2 0 2 37
-1 83 -3 72 -1 88 21 130 25 48 23 57 -6 35z"/>
<path d="M2483 1554 c-48 -24 -65 -57 -68 -133 -2 -50 2 -74 16 -97 45 -74
159 -87 224 -24 56 54 65 145 21 212 -35 54 -128 74 -193 42z m130 -86 c19
-22 22 -69 7 -97 -15 -28 -61 -44 -94 -32 -38 15 -61 72 -44 109 26 53 94 64
131 20z"/>
<path d="M2520 1450 c-11 -11 -20 -27 -20 -35 0 -17 35 -55 50 -55 6 0 22 11
35 24 26 26 25 51 -3 74 -22 17 -39 15 -62 -8z m58 -34 c-2 -13 -12 -22 -25
-24 -19 -3 -23 1 -23 21 0 14 6 27 13 30 22 7 38 -5 35 -27z"/>
<path d="M1550 1020 l0 -90 570 0 570 0 0 90 0 90 -570 0 -570 0 0 -90z m310
-1 c0 -49 -1 -50 -27 -47 -24 3 -27 7 -29 51 -1 46 -1 47 27 47 28 0 29 -2 29
-51z m-206 18 c11 -18 0 -47 -21 -54 -12 -4 -43 23 -43 37 0 14 31 41 43 37 6
-2 15 -11 21 -20z m104 11 c18 -18 14 -46 -7 -58 -15 -7 -23 -6 -35 6 -19 18
-19 20 -6 45 12 22 30 25 48 7z m650 0 c18 -18 14 -46 -9 -58 -26 -14 -49 3
-49 35 0 32 35 46 58 23z m110 0 c30 -30 -11 -85 -44 -57 -25 21 -11 69 21 69
6 0 16 -5 23 -12z m110 0 c30 -30 -4 -77 -41 -57 -29 17 -15 69 18 69 6 0 16
-5 23 -12z m-342 -30 l3 -28 -200 0 -199 0 0 30 0 30 196 -2 197 -3 3 -27z"/>
<path d="M484 828 c-13 -20 -9 -187 4 -200 18 -18 24 -4 30 71 7 104 -10 169
-34 129z"/>
</g>
</svg>
